<?xml version="1.0" encoding="UTF-8" standalone="no" ?>
<!DOCTYPE svg PUBLIC "-//W3C//DTD SVG 1.1//EN" "http://www.w3.org/Graphics/SVG/1.1/DTD/svg11.dtd">
<svg xmlns="http://www.w3.org/2000/svg" xmlns:xlink="http://www.w3.org/1999/xlink" version="1.1" width="500" height="500" viewBox="0 0 500 500" xml:space="preserve">
<desc>Created with Fabric.js 4.6.0</desc>
<defs>
</defs>
<g transform="matrix(1 0 0 1 88.66 106.28)" id="bvEb485ihMditygsHqOUl"  >
<path style="stroke: rgb(89,132,93); stroke-width: 0; stroke-dasharray: none; stroke-linecap: butt; stroke-dashoffset: 0; stroke-linejoin: miter; stroke-miterlimit: 4; fill: rgb(12,250,133); fill-rule: nonzero; opacity: 1;" vector-effect="non-scaling-stroke"  transform=" translate(-82.18, -82.18)" d="M 82.17906 0 C 127.5419 0 164.35812 36.81622 164.35812 82.17906 C 164.35812 127.5419 127.54190000000001 164.35812 82.17906 164.35812 C 36.81622000000001 164.35812 0 127.54190000000001 0 82.17906 C 0 36.81622000000001 36.81622 0 82.17906 0 z" stroke-linecap="round" />
</g>
<g transform="matrix(0.79 0 0 0.79 160.02 264.82)" id="SXPnRGxBlGJXMggTCE0C7"  >
<path style="stroke: rgb(89,132,93); stroke-width: 0; stroke-dasharray: none; stroke-linecap: butt; stroke-dashoffset: 0; stroke-linejoin: miter; stroke-miterlimit: 4; fill: rgb(12,250,68); fill-rule: nonzero; opacity: 1;" vector-effect="non-scaling-stroke"  transform=" translate(0, 0)" d="M 0 -82.17906 C 45.36284 -82.17906 82.17906 -45.362840000000006 82.17906 0 C 82.17906 45.36284 45.362840000000006 82.17906 0 82.17906 C -45.36284 82.17906 -82.17906 45.362840000000006 -82.17906 0 C -82.17906 -45.36284 -45.362840000000006 -82.17906 0 -82.17906 z" stroke-linecap="round" />
</g>
<g transform="matrix(0.59 0 0 0.59 268.38 353.81)" id="682OMWdmXC6Svc6INpSvw"  >
<path style="stroke: rgb(89,132,93); stroke-width: 0; stroke-dasharray: none; stroke-linecap: butt; stroke-dashoffset: 0; stroke-linejoin: miter; stroke-miterlimit: 4; fill: rgb(12,250,27); fill-rule: nonzero; opacity: 1;" vector-effect="non-scaling-stroke"  transform=" translate(0, 0)" d="M 0 -82.17906 C 45.36284 -82.17906 82.17906 -45.362840000000006 82.17906 0 C 82.17906 45.36284 45.362840000000006 82.17906 0 82.17906 C -45.36284 82.17906 -82.17906 45.362840000000006 -82.17906 0 C -82.17906 -45.36284 -45.362840000000006 -82.17906 0 -82.17906 z" stroke-linecap="round" />
</g>
<g transform="matrix(0.4 0 0 0.4 365.32 402.48)" id="blbqpg4ZDMM4GTrZ4fAJ3"  >
<path style="stroke: rgb(89,132,92); stroke-width: 0; stroke-dasharray: none; stroke-linecap: butt; stroke-dashoffset: 0; stroke-linejoin: miter; stroke-miterlimit: 4; fill: rgb(12,250,35); fill-rule: nonzero; opacity: 1;" vector-effect="non-scaling-stroke"  transform=" translate(0, 0)" d="M 0 -82.17906 C 45.36284 -82.17906 82.17906 -45.362840000000006 82.17906 0 C 82.17906 45.36284 45.362840000000006 82.17906 0 82.17906 C -45.36284 82.17906 -82.17906 45.362840000000006 -82.17906 0 C -82.17906 -45.36284 -45.362840000000006 -82.17906 0 -82.17906 z" stroke-linecap="round" />
</g>
<g transform="matrix(0.27 0 0 0.27 435.39 452.66)" id="4AYZ5-YfqIpqPrOUa56gS"  >
<path style="stroke: rgb(89,132,93); stroke-width: 0; stroke-dasharray: none; stroke-linecap: butt; stroke-dashoffset: 0; stroke-linejoin: miter; stroke-miterlimit: 4; fill: rgb(78,250,12); fill-rule: nonzero; opacity: 1;" vector-effect="non-scaling-stroke"  transform=" translate(0, 0)" d="M 0 -82.17906 C 45.36284 -82.17906 82.17906 -45.362840000000006 82.17906 0 C 82.17906 45.36284 45.362840000000006 82.17906 0 82.17906 C -45.36284 82.17906 -82.17906 45.362840000000006 -82.17906 0 C -82.17906 -45.36284 -45.362840000000006 -82.17906 0 -82.17906 z" stroke-linecap="round" />
</g>
<g transform="matrix(1.24 0 0 0.3 279.07 138.83)" id="D_xSUKjkuUyKe2YeV2YYv"  >
<path style="stroke: rgb(89,132,92); stroke-width: 0; stroke-dasharray: none; stroke-linecap: butt; stroke-dashoffset: 0; stroke-linejoin: miter; stroke-miterlimit: 4; fill: rgb(71,148,225); fill-rule: nonzero; opacity: 1;" vector-effect="non-scaling-stroke"  transform=" translate(0, 0)" d="M -16.66215 -16.66215 L 16.662139999999997 -16.66215 L 16.662139999999997 16.662139999999997 L -16.66215 16.662139999999997 z" stroke-linecap="round" />
</g>
<g transform="matrix(1.24 0 0 0.77 279.07 172.6)" id="OtmMQbGwJKWvvj1jpzg0s"  >
<path style="stroke: rgb(89,132,92); stroke-width: 0; stroke-dasharray: none; stroke-linecap: butt; stroke-dashoffset: 0; stroke-linejoin: miter; stroke-miterlimit: 4; fill: rgb(71,148,225); fill-rule: nonzero; opacity: 1;" vector-effect="non-scaling-stroke"  transform=" translate(0, 0)" d="M -16.66215 -16.66215 L 16.662139999999997 -16.66215 L 16.662139999999997 16.662139999999997 L -16.66215 16.662139999999997 z" stroke-linecap="round" />
</g>
<g transform="matrix(1.24 0 0 0.77 279.07 212.25)" id="BhAXdXUlZMopDxWI28RJP"  >
<path style="stroke: rgb(89,132,92); stroke-width: 0; stroke-dasharray: none; stroke-linecap: butt; stroke-dashoffset: 0; stroke-linejoin: miter; stroke-miterlimit: 4; fill: rgb(71,148,225); fill-rule: nonzero; opacity: 1;" vector-effect="non-scaling-stroke"  transform=" translate(0, 0)" d="M -16.66215 -16.66215 L 16.662139999999997 -16.66215 L 16.662139999999997 16.662139999999997 L -16.66215 16.662139999999997 z" stroke-linecap="round" />
</g>
<g transform="matrix(1.24 0 0 0.77 279.07 252.84)" id="3l49s5-bu3SgA-QWUzD2H"  >
<path style="stroke: rgb(89,132,92); stroke-width: 0; stroke-dasharray: none; stroke-linecap: butt; stroke-dashoffset: 0; stroke-linejoin: miter; stroke-miterlimit: 4; fill: rgb(71,148,225); fill-rule: nonzero; opacity: 1;" vector-effect="non-scaling-stroke"  transform=" translate(0, 0)" d="M -16.66215 -16.66215 L 16.662139999999997 -16.66215 L 16.662139999999997 16.662139999999997 L -16.66215 16.662139999999997 z" stroke-linecap="round" />
</g>
<g transform="matrix(1.24 0 0 0.3 340 138.5)" id="CLwAifZ4keN6XgREldSq1"  >
<path style="stroke: rgb(89,132,92); stroke-width: 0; stroke-dasharray: none; stroke-linecap: butt; stroke-dashoffset: 0; stroke-linejoin: miter; stroke-miterlimit: 4; fill: rgb(71,148,225); fill-rule: nonzero; opacity: 1;" vector-effect="non-scaling-stroke"  transform=" translate(0, 0)" d="M -16.66215 -16.66215 L 16.662139999999997 -16.66215 L 16.662139999999997 16.662139999999997 L -16.66215 16.662139999999997 z" stroke-linecap="round" />
</g>
<g transform="matrix(1.24 0 0 0.77 339.99 172.27)" id="qL9dIHhRlxtzyX9YfXdXZ"  >
<path style="stroke: rgb(89,132,92); stroke-width: 0; stroke-dasharray: none; stroke-linecap: butt; stroke-dashoffset: 0; stroke-linejoin: miter; stroke-miterlimit: 4; fill: rgb(71,148,225); fill-rule: nonzero; opacity: 1;" vector-effect="non-scaling-stroke"  transform=" translate(0, 0)" d="M -16.66215 -16.66215 L 16.662139999999997 -16.66215 L 16.662139999999997 16.662139999999997 L -16.66215 16.662139999999997 z" stroke-linecap="round" />
</g>
<g transform="matrix(1.24 0 0 0.77 339.99 211.93)" id="tLV5ga9KBICyqy7Am9QyC"  >
<path style="stroke: rgb(89,132,92); stroke-width: 0; stroke-dasharray: none; stroke-linecap: butt; stroke-dashoffset: 0; stroke-linejoin: miter; stroke-miterlimit: 4; fill: rgb(71,148,225); fill-rule: nonzero; opacity: 1;" vector-effect="non-scaling-stroke"  transform=" translate(0, 0)" d="M -16.66215 -16.66215 L 16.662139999999997 -16.66215 L 16.662139999999997 16.662139999999997 L -16.66215 16.662139999999997 z" stroke-linecap="round" />
</g>
<g transform="matrix(1.24 0 0 0.3 398.98 138.83)" id="be1o7EOG1wjFsCUagVirC"  >
<path style="stroke: rgb(89,132,92); stroke-width: 0; stroke-dasharray: none; stroke-linecap: butt; stroke-dashoffset: 0; stroke-linejoin: miter; stroke-miterlimit: 4; fill: rgb(71,148,225); fill-rule: nonzero; opacity: 1;" vector-effect="non-scaling-stroke"  transform=" translate(0, 0)" d="M -16.66215 -16.66215 L 16.662139999999997 -16.66215 L 16.662139999999997 16.662139999999997 L -16.66215 16.662139999999997 z" stroke-linecap="round" />
</g>
<g transform="matrix(1.24 0 0 0.77 398.98 172.6)" id="oOBuvVfI0lyxUct6olgjA"  >
<path style="stroke: rgb(89,132,92); stroke-width: 0; stroke-dasharray: none; stroke-linecap: butt; stroke-dashoffset: 0; stroke-linejoin: miter; stroke-miterlimit: 4; fill: rgb(71,148,225); fill-rule: nonzero; opacity: 1;" vector-effect="non-scaling-stroke"  transform=" translate(0, 0)" d="M -16.66215 -16.66215 L 16.662139999999997 -16.66215 L 16.662139999999997 16.662139999999997 L -16.66215 16.662139999999997 z" stroke-linecap="round" />
</g>
</svg>